<?xml version="1.0" encoding="utf-8"?>
<svg version="1.1" xmlns="http://www.w3.org/2000/svg" xmlns:xlink="http://www.w3.org/1999/xlink">

<symbol id="instagram" viewBox="0 0 24 24">
    <title>Instagram</title> 
    <desc>Instagram Logo</desc>
    <path d="M12 2.163c3.204 0 3.584.012 4.85.07 3.252.148 4.771 1.691 4.919 4.919.058 1.265.069 1.645.069 4.849 0 3.205-.012 3.584-.069 4.849-.149 3.225-1.664 4.771-4.919 4.919-1.266.058-1.644.07-4.85.07-3.204 0-3.584-.012-4.849-.07-3.26-.149-4.771-1.699-4.919-4.92-.058-1.265-.07-1.644-.07-4.849 0-3.204.013-3.583.07-4.849.149-3.227 1.664-4.771 4.919-4.919 1.266-.057 1.645-.069 4.849-.069zm0-2.163c-3.259 0-3.667.014-4.947.072-4.358.2-6.78 2.618-6.98 6.98-.059 1.281-.073 1.689-.073 4.948 0 3.259.014 3.668.072 4.948.2 4.358 2.618 6.78 6.98 6.98 1.281.058 1.689.072 4.948.072 3.259 0 3.668-.014 4.948-.072 4.354-.2 6.782-2.618 6.979-6.98.059-1.28.073-1.689.073-4.948 0-3.259-.014-3.667-.072-4.947-.196-4.354-2.617-6.78-6.979-6.98-1.281-.059-1.69-.073-4.949-.073zm0 5.838c-3.403 0-6.162 2.759-6.162 6.162s2.759 6.163 6.162 6.163 6.162-2.759 6.162-6.163c0-3.403-2.759-6.162-6.162-6.162zm0 10.162c-2.209 0-4-1.79-4-4 0-2.209 1.791-4 4-4s4 1.791 4 4c0 2.21-1.791 4-4 4zm6.406-11.845c-.796 0-1.441.645-1.441 1.44s.645 1.44 1.441 1.44c.795 0 1.439-.645 1.439-1.44s-.644-1.44-1.439-1.44z"></path>
</symbol>

<symbol id="hamburger" viewBox="0 0 40 30">
    <g>
        <rect height="5" width="21.77" />
        <rect height="5" width="27.91" y="22.33" />
        <rect height="5" width="37.95" y="11.16" />
    </g>
</symbol>

<symbol id="normal" viewBox="0 0 150 150">
    <g>
        <path d="M111.18,82.63l1.88,1.1-.46.78-4.41-2.57.79-1.35a1.28,1.28,0,0,1,1.94-.56,1.16,1.16,0,0,1,.67,1.16c.36-.25.74-.24,1.4.14l.17.11a6.86,6.86,0,0,0,1,.48l-.45.76a4.15,4.15,0,0,1-1-.47l-.16-.09c-.59-.35-.87-.33-1.16.17Zm-.64-.37.22-.38a.65.65,0,0,0-.27-1,.61.61,0,0,0-.94.24l-.26.44Z"/>
        <path d="M115.49,84.57a5.07,5.07,0,1,1-1.82-6.95A5.08,5.08,0,0,1,115.49,84.57Zm-7.95-4.65a4.13,4.13,0,1,0,5.65-1.48A4.13,4.13,0,0,0,107.54,79.92Z" />
        <path d="M22.26,84.3l17.1-6.42,1.31,3.48c-8.13,7.09-9.67,8.44-10.44,9v0c2-.92,4.52-1.87,7.32-2.92l4.72-1.77,1,2.73-17.1,6.42L25,91.48c8.71-7.44,10.28-8.77,11-9.28v0c-2.06.92-4.57,1.87-7.64,3l-5,1.87Z" />
        <path d="M47.33,106c-4.66,4.79-8,5.6-11,2.66-2.82-2.75-2.19-6.14,2.53-11s8-5.07,10.75-2.44C52.46,98.08,51.76,101.5,47.33,106Zm-6-6c-3,3.11-4.35,5.41-3,6.75s3.52.1,6.68-3.13c3-3,4.06-5,2.64-6.44S44.12,97.13,41.28,100Z" />
        <path d="M56.47,112.36l-2.6,7.35-3.07-1.09,6.11-17.22,5.27,1.87c3.13,1.11,4.33,3.37,3.24,6.44-.88,2.49-2.6,3.1-3.62,3.13,1.11,1.1,1.34,2.46.43,5l-.24.69a22.08,22.08,0,0,0-1.05,3.69l-3-1.06a15.35,15.35,0,0,1,1-3.74l.23-.63c.81-2.3.56-3.27-1.38-4Zm.89-2.49,1.45.51c1.86.66,2.87.12,3.49-1.62a2.19,2.19,0,0,0-1.46-3.16L59.09,105Z" />
        <path d="M83.18,115.49c-.44-3.09-.88-6.63-1.12-8.69H82c-.13,3.52-.27,9.77-.63,15.8l-2.92.41c-1.65-5.33-3.61-11.68-4.69-15.1l-.1,0c.41,2.1,1,5.88,1.47,9l.91,6.42-3,.42-2.56-18.09,4.85-.69c1.65,4.87,3.19,9.8,3.93,12.39h0c0-2.51.38-8.12.65-13l4.73-.67,2.55,18.09-3.1.44Z" />
        <path d="M97.3,112l1.79,4.33-2.73,1.81-6.58-17.55,3.54-2.35L107,111.06l-2.86,1.9-3.3-3.33Zm1.47-4.38c-2.5-2.53-4.37-4.36-5.58-5.65l-.06,0c.75,1.52,1.78,4.13,3.08,7.31Z" />
        <path d="M98.68,93.4l1.82-2.72,12.86,8.59,3.47-5.19L119,95.89l-5.12,7.66Z" />
        <path d="M73.38,146.76a73.38,73.38,0,1,1,73.38-73.38A73.47,73.47,0,0,1,73.38,146.76Zm0-143.26a69.88,69.88,0,1,0,69.88,69.88A70,70,0,0,0,73.38,3.5Z" />
        <path d="M95.44,48.31c-2.93-13.06-10.77-22-17.82-20.46-4.7,1-7.7,6.5-8.32,13.88-3.71-6.41-8.75-10-13.45-9C48.79,34.33,45.56,45.8,48.5,58.87a37.25,37.25,0,0,0,7,15.27c2.89,3.52,6.1,5.38,9.19,5.38a7.17,7.17,0,0,0,1.66-.19C71,78.27,74,72.82,74.64,65.43a28.72,28.72,0,0,0,2.6,3.82c2.89,3.51,6.1,5.37,9.18,5.37a7.83,7.83,0,0,0,1.67-.18c3.59-.81,6.28-4.13,7.59-9.34A37.33,37.33,0,0,0,95.44,48.31Zm-17.06-17a4.28,4.28,0,0,1,.87-.09c4.15,0,9.66,6.09,12.36,16.21L73.34,51.49C71.31,40.45,74.17,32.21,78.38,31.26Zm-21.76,4.9a3.55,3.55,0,0,1,.86-.1c4.15,0,9.66,6.1,12.36,16.22l-18.27,4.1C49.54,45.35,52.4,37.1,56.62,36.16Zm8.94,39.76c-2.2.49-4.89-1-7.38-4a24,24,0,0,1-2-2.8,6.24,6.24,0,0,0,5.84.62c3.26-1.39,4.64-5.48,3.08-9.14a7.69,7.69,0,0,0-2.41-3.13l7.89-1.78C72.63,66.73,69.77,75,65.56,75.92ZM92.28,64.25c-1,3.81-2.76,6.28-5,6.77s-4.89-1-7.38-4a23.51,23.51,0,0,1-2-2.87,6.24,6.24,0,0,0,5.94.7c3.27-1.4,4.65-5.49,3.09-9.14a7.88,7.88,0,0,0-2.43-3.15l7.84-1.77A32.42,32.42,0,0,1,92.28,64.25Z"/>
</g>
</symbol>


<symbol id="reg" viewBox="0 0 250 400">
    <g>
        <circle cx="125" cy="125" r="100" stroke-width="20px" fill="none"/>
        <text x="125" y="135" text-anchor="middle" font-size="180px" dy=".3em">R</text>
    </g>
</symbol>

<symbol id="v" viewBox="0 0 250 300">
    <g>
        <circle cx="125" cy="125" r="100" stroke-width="20px" fill="none"/>
        <text x="125" y="125" text-anchor="middle" font-size="180px" dy=".3em">v</text>
    </g>
</symbol>

<symbol id="gf" viewBox="0 0 250 300">
    <g>
        <circle cx="125" cy="125" r="100" stroke-width="20px" fill="none"/>
        <text x="125" y="135" text-anchor="middle" font-size="150px" dy=".3em">gf</text>
    </g>
</symbol>

<symbol id="minus" viewBox="0 0 32 32">
    <mask id="minusMask">
        <rect x="0" y="0" width="32" height="32" fill="white"></rect>
        <text x="16" text-anchor="middle" alignment-baseline="middle" y="16" fill="black" font-size="50">-</text>
    </mask>    
    <circle cx="50%" cy="50%" r="50%" mask="url(/icons.svg#minusMask)"></circle>
</symbol>

<symbol id="plus" viewBox="0 0 32 32">
        <mask id="plusMask">
            <rect x="0" y="0" width="32" height="32" fill="white"></rect>
            <text x="16" text-anchor="middle" alignment-baseline="middle" y="21" fill="black" font-size="40">+</text>
        </mask>    
        <circle cx="50%" cy="50%" r="50%" mask="url(/icons.svg#plusMask)"></circle>
</symbol>

<symbol id="back" viewBox="0 0 24 24" >
    <g>
        <path d="M19.66,11.3c0.01-0.34-0.11-0.68-0.34-0.94c-0.22-0.26-0.54-0.4-0.88-0.39h-7.32l3.05-3  c0.52-0.52,0.53-1.36,0.01-1.88c0,0-0.01-0.01-0.01-0.01l-0.78-0.77c-0.51-0.52-1.35-0.53-1.87-0.01c0,0-0.01,0.01-0.01,0.01  l-6.79,6.71c-0.25,0.25-0.39,0.59-0.39,0.95c-0.01,0.35,0.14,0.69,0.39,0.94l6.78,6.79c0.25,0.25,0.59,0.39,0.95,0.39  c0.35,0.01,0.69-0.14,0.94-0.39l0.78-0.79c0.52-0.51,0.52-1.34,0.02-1.85c-0.01-0.01-0.01-0.01-0.02-0.02l-3.05-3.07h7.33  c0.34,0.01,0.66-0.13,0.88-0.39c0.23-0.26,0.35-0.6,0.34-0.94V11.3l0,0H19.66z"/>
    </g>
</symbol>

<symbol id="next" viewBox="0 0 24 24" >
    <g>
        <path d="M20.05,8.23c0-0.27-0.1-0.52-0.29-0.71l-1.42-1.41c-0.39-0.39-1.02-0.39-1.41-0.01c0,0,0,0-0.01,0.01l-6.83,6.84  L7.03,9.88C6.64,9.49,6.01,9.49,5.62,9.87c0,0,0,0-0.01,0.01L4.2,11.29c-0.39,0.39-0.39,1.02-0.01,1.41c0,0,0,0,0.01,0.01l5.18,5.18  c0.39,0.39,1.02,0.39,1.41,0.01c0,0,0,0,0.01-0.01l9-9c0.19-0.19,0.29-0.44,0.29-0.71l0,0L20.05,8.23z"/>
    </g>
</symbol>

<symbol id="close" viewBox="0 0 24 24" >
    <g>
        <path d="M14.9,16.42c-0.13,0.13-0.33,0.14-0.47,0.01c0,0-0.01-0.01-0.01-0.01L12,14l-2.43,2.42  c-0.13,0.13-0.33,0.14-0.47,0.01c0,0-0.01-0.01-0.01-0.01L7.58,14.9c-0.13-0.13-0.14-0.33-0.01-0.47c0,0,0.01-0.01,0.01-0.01L10,12  L7.58,9.57C7.45,9.45,7.44,9.24,7.57,9.1c0,0,0.01-0.01,0.01-0.01L9.1,7.58c0.13-0.13,0.33-0.14,0.47-0.01c0,0,0.01,0.01,0.01,0.01  L12,10l2.43-2.43c0.13-0.13,0.33-0.14,0.47-0.01c0,0,0.01,0.01,0.01,0.01l1.51,1.53c0.13,0.13,0.14,0.33,0.01,0.47  c0,0-0.01,0.01-0.01,0.01L14,12l2.43,2.43c0.13,0.13,0.14,0.33,0.01,0.47c0,0-0.01,0.01-0.01,0.01L14.9,16.42L14.9,16.42z   M20.84,4.49C20.53,4.17,20.1,3.99,19.66,4H4.34C3.42,4,2.67,4.75,2.67,5.67l0,0v12.66c0,0.92,0.75,1.67,1.67,1.67l0,0h15.32  c0.92,0,1.67-0.75,1.67-1.67l0,0V5.67C21.34,5.23,21.16,4.8,20.84,4.49z"/>
    </g>
</symbol>

<symbol id="arrow" viewBox="0 0 24 24">
    <g>
        <path d="M19.66,11.3c0.01-0.34-0.11-0.68-0.34-0.94c-0.22-0.26-0.54-0.4-0.88-0.39h-7.32l3.05-3  c0.52-0.52,0.53-1.36,0.01-1.88c0,0-0.01-0.01-0.01-0.01l-0.78-0.77c-0.51-0.52-1.35-0.53-1.87-0.01c0,0-0.01,0.01-0.01,0.01  l-6.79,6.71c-0.25,0.25-0.39,0.59-0.39,0.95c-0.01,0.35,0.14,0.69,0.39,0.94l6.78,6.79c0.25,0.25,0.59,0.39,0.95,0.39  c0.35,0.01,0.69-0.14,0.94-0.39l0.78-0.79c0.52-0.51,0.52-1.34,0.02-1.85c-0.01-0.01-0.01-0.01-0.02-0.02l-3.05-3.07h7.33  c0.34,0.01,0.66-0.13,0.88-0.39c0.23-0.26,0.35-0.6,0.34-0.94V11.3l0,0H19.66z"></path>
    </g>
</symbol>

</svg>