<?xml version="1.0" encoding="utf-8"?>
<svg version="1.1" xmlns="http://www.w3.org/2000/svg" xmlns:xlink="http://www.w3.org/1999/xlink">

<symbol id="instagram" viewBox="0 0 24 24">
    <title>Instagram</title> 
    <desc>Instagram Logo</desc>
    <path d="M12 2.163c3.204 0 3.584.012 4.85.07 3.252.148 4.771 1.691 4.919 4.919.058 1.265.069 1.645.069 4.849 0 3.205-.012 3.584-.069 4.849-.149 3.225-1.664 4.771-4.919 4.919-1.266.058-1.644.07-4.85.07-3.204 0-3.584-.012-4.849-.07-3.26-.149-4.771-1.699-4.919-4.92-.058-1.265-.07-1.644-.07-4.849 0-3.204.013-3.583.07-4.849.149-3.227 1.664-4.771 4.919-4.919 1.266-.057 1.645-.069 4.849-.069zm0-2.163c-3.259 0-3.667.014-4.947.072-4.358.2-6.78 2.618-6.98 6.98-.059 1.281-.073 1.689-.073 4.948 0 3.259.014 3.668.072 4.948.2 4.358 2.618 6.78 6.98 6.98 1.281.058 1.689.072 4.948.072 3.259 0 3.668-.014 4.948-.072 4.354-.2 6.782-2.618 6.979-6.98.059-1.28.073-1.689.073-4.948 0-3.259-.014-3.667-.072-4.947-.196-4.354-2.617-6.78-6.979-6.98-1.281-.059-1.69-.073-4.949-.073zm0 5.838c-3.403 0-6.162 2.759-6.162 6.162s2.759 6.163 6.162 6.163 6.162-2.759 6.162-6.163c0-3.403-2.759-6.162-6.162-6.162zm0 10.162c-2.209 0-4-1.79-4-4 0-2.209 1.791-4 4-4s4 1.791 4 4c0 2.21-1.791 4-4 4zm6.406-11.845c-.796 0-1.441.645-1.441 1.44s.645 1.44 1.441 1.44c.795 0 1.439-.645 1.439-1.44s-.644-1.44-1.439-1.44z"></path>
</symbol>

<symbol id="hamburger" viewBox="0 0 40 30">
    <g>
        <rect height="5" width="21.77" />
        <rect height="5" width="27.91" y="22.33" />
        <rect height="5" width="37.95" y="11.16" />
    </g>
</symbol>

<symbol id="normal" viewBox="0 0 150 150">
    <g>
        <path d="M111.18,82.63l1.88,1.1-.46.78-4.41-2.57.79-1.35a1.28,1.28,0,0,1,1.94-.56,1.16,1.16,0,0,1,.67,1.16c.36-.25.74-.24,1.4.14l.17.11a6.86,6.86,0,0,0,1,.48l-.45.76a4.15,4.15,0,0,1-1-.47l-.16-.09c-.59-.35-.87-.33-1.16.17Zm-.64-.37.22-.38a.65.65,0,0,0-.27-1,.61.61,0,0,0-.94.24l-.26.44Z"/>
        <path d="M115.49,84.57a5.07,5.07,0,1,1-1.82-6.95A5.08,5.08,0,0,1,115.49,84.57Zm-7.95-4.65a4.13,4.13,0,1,0,5.65-1.48A4.13,4.13,0,0,0,107.54,79.92Z" />
        <path d="M22.26,84.3l17.1-6.42,1.31,3.48c-8.13,7.09-9.67,8.44-10.44,9v0c2-.92,4.52-1.87,7.32-2.92l4.72-1.77,1,2.73-17.1,6.42L25,91.48c8.71-7.44,10.28-8.77,11-9.28v0c-2.06.92-4.57,1.87-7.64,3l-5,1.87Z" />
        <path d="M47.33,106c-4.66,4.79-8,5.6-11,2.66-2.82-2.75-2.19-6.14,2.53-11s8-5.07,10.75-2.44C52.46,98.08,51.76,101.5,47.33,106Zm-6-6c-3,3.11-4.35,5.41-3,6.75s3.52.1,6.68-3.13c3-3,4.06-5,2.64-6.44S44.12,97.13,41.28,100Z" />
        <path d="M56.47,112.36l-2.6,7.35-3.07-1.09,6.11-17.22,5.27,1.87c3.13,1.11,4.33,3.37,3.24,6.44-.88,2.49-2.6,3.1-3.62,3.13,1.11,1.1,1.34,2.46.43,5l-.24.69a22.08,22.08,0,0,0-1.05,3.69l-3-1.06a15.35,15.35,0,0,1,1-3.74l.23-.63c.81-2.3.56-3.27-1.38-4Zm.89-2.49,1.45.51c1.86.66,2.87.12,3.49-1.62a2.19,2.19,0,0,0-1.46-3.16L59.09,105Z" />
        <path d="M83.18,115.49c-.44-3.09-.88-6.63-1.12-8.69H82c-.13,3.52-.27,9.77-.63,15.8l-2.92.41c-1.65-5.33-3.61-11.68-4.69-15.1l-.1,0c.41,2.1,1,5.88,1.47,9l.91,6.42-3,.42-2.56-18.09,4.85-.69c1.65,4.87,3.19,9.8,3.93,12.39h0c0-2.51.38-8.12.65-13l4.73-.67,2.55,18.09-3.1.44Z" />
        <path d="M97.3,112l1.79,4.33-2.73,1.81-6.58-17.55,3.54-2.35L107,111.06l-2.86,1.9-3.3-3.33Zm1.47-4.38c-2.5-2.53-4.37-4.36-5.58-5.65l-.06,0c.75,1.52,1.78,4.13,3.08,7.31Z" />
        <path d="M98.68,93.4l1.82-2.72,12.86,8.59,3.47-5.19L119,95.89l-5.12,7.66Z" />
        <path d="M73.38,146.76a73.38,73.38,0,1,1,73.38-73.38A73.47,73.47,0,0,1,73.38,146.76Zm0-143.26a69.88,69.88,0,1,0,69.88,69.88A70,70,0,0,0,73.38,3.5Z" />
        <path d="M95.44,48.31c-2.93-13.06-10.77-22-17.82-20.46-4.7,1-7.7,6.5-8.32,13.88-3.71-6.41-8.75-10-13.45-9C48.79,34.33,45.56,45.8,48.5,58.87a37.25,37.25,0,0,0,7,15.27c2.89,3.52,6.1,5.38,9.19,5.38a7.17,7.17,0,0,0,1.66-.19C71,78.27,74,72.82,74.64,65.43a28.72,28.72,0,0,0,2.6,3.82c2.89,3.51,6.1,5.37,9.18,5.37a7.83,7.83,0,0,0,1.67-.18c3.59-.81,6.28-4.13,7.59-9.34A37.33,37.33,0,0,0,95.44,48.31Zm-17.06-17a4.28,4.28,0,0,1,.87-.09c4.15,0,9.66,6.09,12.36,16.21L73.34,51.49C71.31,40.45,74.17,32.21,78.38,31.26Zm-21.76,4.9a3.55,3.55,0,0,1,.86-.1c4.15,0,9.66,6.1,12.36,16.22l-18.27,4.1C49.54,45.35,52.4,37.1,56.62,36.16Zm8.94,39.76c-2.2.49-4.89-1-7.38-4a24,24,0,0,1-2-2.8,6.24,6.24,0,0,0,5.84.62c3.26-1.39,4.64-5.48,3.08-9.14a7.69,7.69,0,0,0-2.41-3.13l7.89-1.78C72.63,66.73,69.77,75,65.56,75.92ZM92.28,64.25c-1,3.81-2.76,6.28-5,6.77s-4.89-1-7.38-4a23.51,23.51,0,0,1-2-2.87,6.24,6.24,0,0,0,5.94.7c3.27-1.4,4.65-5.49,3.09-9.14a7.88,7.88,0,0,0-2.43-3.15l7.84-1.77A32.42,32.42,0,0,1,92.28,64.25Z"/>
</g>
</symbol>


<symbol id="reg" viewBox="0 0 250 400">
    <g>
        <circle cx="125" cy="125" r="100" stroke-width="20px" fill="none"/>
        <text x="125" y="135" text-anchor="middle" font-size="180px" dy=".3em">R</text>
    </g>
</symbol>

<symbol id="v" viewBox="0 0 250 300">
    <g>
        <circle cx="125" cy="125" r="100" stroke-width="20px" fill="none"/>
        <text x="125" y="125" text-anchor="middle" font-size="180px" dy=".3em">v</text>
    </g>
</symbol>

<symbol id="gf" viewBox="0 0 250 300">
    <g>
        <circle cx="125" cy="125" r="100" stroke-width="20px" fill="none"/>
        <text x="125" y="135" text-anchor="middle" font-size="150px" dy=".3em">gf</text>
    </g>
</symbol>

<symbol id="minus" viewBox="0 0 32 32">
    <mask id="minusMask">
        <rect x="0" y="0" width="32" height="32" fill="white"></rect>
        <text x="16" text-anchor="middle" alignment-baseline="middle" y="16" fill="black" font-size="50">-</text>
    </mask>    
    <circle cx="50%" cy="50%" r="50%" mask="url(/icons.svg#minusMask)"></circle>
</symbol>

<symbol id="plus" viewBox="0 0 32 32">
        <mask id="plusMask">
            <rect x="0" y="0" width="32" height="32" fill="white"></rect>
            <text x="16" text-anchor="middle" alignment-baseline="middle" y="21" fill="black" font-size="40">+</text>
        </mask>    
        <circle cx="50%" cy="50%" r="50%" mask="url(/icons.svg#plusMask)"></circle>
</symbol>

<symbol id="back" viewBox="0 0 24 24" >
    <g>
        <path d="M19.66,11.3c0.01-0.34-0.11-0.68-0.34-0.94c-0.22-0.26-0.54-0.4-0.88-0.39h-7.32l3.05-3  c0.52-0.52,0.53-1.36,0.01-1.88c0,0-0.01-0.01-0.01-0.01l-0.78-0.77c-0.51-0.52-1.35-0.53-1.87-0.01c0,0-0.01,0.01-0.01,0.01  l-6.79,6.71c-0.25,0.25-0.39,0.59-0.39,0.95c-0.01,0.35,0.14,0.69,0.39,0.94l6.78,6.79c0.25,0.25,0.59,0.39,0.95,0.39  c0.35,0.01,0.69-0.14,0.94-0.39l0.78-0.79c0.52-0.51,0.52-1.34,0.02-1.85c-0.01-0.01-0.01-0.01-0.02-0.02l-3.05-3.07h7.33  c0.34,0.01,0.66-0.13,0.88-0.39c0.23-0.26,0.35-0.6,0.34-0.94V11.3l0,0H19.66z"/>
    </g>
</symbol>

<symbol id="next" viewBox="0 0 24 24" >
    <g>
        <path d="M20.05,8.23c0-0.27-0.1-0.52-0.29-0.71l-1.42-1.41c-0.39-0.39-1.02-0.39-1.41-0.01c0,0,0,0-0.01,0.01l-6.83,6.84  L7.03,9.88C6.64,9.49,6.01,9.49,5.62,9.87c0,0,0,0-0.01,0.01L4.2,11.29c-0.39,0.39-0.39,1.02-0.01,1.41c0,0,0,0,0.01,0.01l5.18,5.18  c0.39,0.39,1.02,0.39,1.41,0.01c0,0,0,0,0.01-0.01l9-9c0.19-0.19,0.29-0.44,0.29-0.71l0,0L20.05,8.23z"/>
    </g>
</symbol>

<symbol id="close" viewBox="0 0 24 24" >
    <g>
        <path d="M14.9,16.42c-0.13,0.13-0.33,0.14-0.47,0.01c0,0-0.01-0.01-0.01-0.01L12,14l-2.43,2.42  c-0.13,0.13-0.33,0.14-0.47,0.01c0,0-0.01-0.01-0.01-0.01L7.58,14.9c-0.13-0.13-0.14-0.33-0.01-0.47c0,0,0.01-0.01,0.01-0.01L10,12  L7.58,9.57C7.45,9.45,7.44,9.24,7.57,9.1c0,0,0.01-0.01,0.01-0.01L9.1,7.58c0.13-0.13,0.33-0.14,0.47-0.01c0,0,0.01,0.01,0.01,0.01  L12,10l2.43-2.43c0.13-0.13,0.33-0.14,0.47-0.01c0,0,0.01,0.01,0.01,0.01l1.51,1.53c0.13,0.13,0.14,0.33,0.01,0.47  c0,0-0.01,0.01-0.01,0.01L14,12l2.43,2.43c0.13,0.13,0.14,0.33,0.01,0.47c0,0-0.01,0.01-0.01,0.01L14.9,16.42L14.9,16.42z   M20.84,4.49C20.53,4.17,20.1,3.99,19.66,4H4.34C3.42,4,2.67,4.75,2.67,5.67l0,0v12.66c0,0.92,0.75,1.67,1.67,1.67l0,0h15.32  c0.92,0,1.67-0.75,1.67-1.67l0,0V5.67C21.34,5.23,21.16,4.8,20.84,4.49z"/>
    </g>
</symbol>

<symbol id="arrow" viewBox="0 0 24 24">
    <g>
        <path d="M19.66,11.3c0.01-0.34-0.11-0.68-0.34-0.94c-0.22-0.26-0.54-0.4-0.88-0.39h-7.32l3.05-3  c0.52-0.52,0.53-1.36,0.01-1.88c0,0-0.01-0.01-0.01-0.01l-0.78-0.77c-0.51-0.52-1.35-0.53-1.87-0.01c0,0-0.01,0.01-0.01,0.01  l-6.79,6.71c-0.25,0.25-0.39,0.59-0.39,0.95c-0.01,0.35,0.14,0.69,0.39,0.94l6.78,6.79c0.25,0.25,0.59,0.39,0.95,0.39  c0.35,0.01,0.69-0.14,0.94-0.39l0.78-0.79c0.52-0.51,0.52-1.34,0.02-1.85c-0.01-0.01-0.01-0.01-0.02-0.02l-3.05-3.07h7.33  c0.34,0.01,0.66-0.13,0.88-0.39c0.23-0.26,0.35-0.6,0.34-0.94V11.3l0,0H19.66z"></path>
    </g>
</symbol>

<symbol id="lab" viewBox="0 0 323.85 138.89">
    <g>
        <path d="M295.35,19.09H56.08a1.8,1.8,0,1,1,0-3.6H295.35a1.8,1.8,0,0,1,0,3.6Z"/>
        <path d="M295.35,11.4h-6.46a1.8,1.8,0,0,1,0-3.6h6.46a1.8,1.8,0,0,1,0,3.6Z"/>
        <path d="M116.2,109.93H91.05a6.05,6.05,0,0,1-5-2.57L73.63,89.61a6,6,0,0,1-1.1-3.48V29.21a6.05,6.05,0,0,1,6-6.05H116.2a6.05,6.05,0,0,1,6,6.05v74.67A6.06,6.06,0,0,1,116.2,109.93ZM78.58,26.76a2.45,2.45,0,0,0-2.45,2.45V86.13a2.46,2.46,0,0,0,.45,1.41l12.47,17.75a2.45,2.45,0,0,0,2,1H116.2a2.45,2.45,0,0,0,2.45-2.45V29.21a2.45,2.45,0,0,0-2.45-2.45Z"/>
        <path d="M298.35,80.58H120.45a1.8,1.8,0,0,1,0-3.6h177.9a1.8,1.8,0,0,1,0,3.6Z"/>
        <path d="M296.36,99.65H282.77a3.81,3.81,0,0,1-3.8-3.8v-7.4a3.8,3.8,0,0,1,3.8-3.8h13.59a3.8,3.8,0,0,1,3.79,3.8v7.4A3.8,3.8,0,0,1,296.36,99.65Zm-13.59-11.4a.2.2,0,0,0-.2.2v7.4a.2.2,0,0,0,.2.2h13.59a.2.2,0,0,0,.2-.2v-7.4a.2.2,0,0,0-.2-.2Z"/>
        <path d="M319.79,123.72h-6.87a4.07,4.07,0,0,1-4.07-4.06V101.6a4.08,4.08,0,0,1,4.07-4.07h6.87a4.07,4.07,0,0,1,4.06,4.07v18.06A4.06,4.06,0,0,1,319.79,123.72Zm-6.87-22.59a.47.47,0,0,0-.47.47v18.06a.47.47,0,0,0,.47.46h6.87a.47.47,0,0,0,.46-.46V101.6a.47.47,0,0,0-.46-.47Z"/>
        <path d="M10.93,123.72H4.06A4.06,4.06,0,0,1,0,119.66V108.6a4.07,4.07,0,0,1,4.06-4.07h6.87A4.08,4.08,0,0,1,15,108.6v11.06A4.07,4.07,0,0,1,10.93,123.72ZM4.06,108.13a.47.47,0,0,0-.46.47v11.06a.47.47,0,0,0,.46.46h6.87a.47.47,0,0,0,.47-.46V108.6a.47.47,0,0,0-.47-.47Z"/>
        <path d="M57.3,80.58H52.71a3.05,3.05,0,0,1-3-3V65.78a3.05,3.05,0,0,1,3-3H57.3a3,3,0,0,1,3,3V77.54A3,3,0,0,1,57.3,80.58Zm-4-3.6h3.47V66.34H53.27Z"/>
        <path d="M270.7,46.59h0a2.32,2.32,0,0,0-.07-.38s0,0,0-.05a2,2,0,0,0-.12-.34,1.08,1.08,0,0,0-.08-.19l-.06-.11a3.23,3.23,0,0,0-1.25-1.29h0c-.24-.12-.55-.25-.87-.39a3.33,3.33,0,0,0-.75-6,2.5,2.5,0,0,0,.33-.32h0a3,3,0,0,0,.57-.92,3.19,3.19,0,0,0-1.76-4.16l-.07,0-3.17-1.22A2.37,2.37,0,0,1,261.82,29a2.4,2.4,0,0,1,.19-.92l.18-.44-.47-.1a4.12,4.12,0,0,0-.86-.09,4.33,4.33,0,0,0-3.35,7.07,3.14,3.14,0,0,0-.67.17h0l0,0-.37.17,0,0a3.18,3.18,0,0,0-1.61,2.76,2.74,2.74,0,0,0,0,.5v0c0,.16.07.31.11.45v0a2.78,2.78,0,0,0,.16.4s.05.1.08.14l.12.21.13.18h0a2.56,2.56,0,0,0,.45.48h0a2.78,2.78,0,0,0-.71.21h0a2.9,2.9,0,0,0-.54.31l-.08.06-.21.17a1.88,1.88,0,0,0-.25.24l0,0a3.18,3.18,0,0,0,.41,4.64,3.19,3.19,0,0,0-1.87,2.9,3.14,3.14,0,0,0,1.19,2.48l.9,6.89,2.2.68,1.17,10.85h8.11l1.17-10.85,2.19-.68.89-6.8,0-.16a1.75,1.75,0,0,0-1.27-1.29,3.18,3.18,0,0,0,1.55-2.41h0c0-.1,0-.21,0-.31A3.15,3.15,0,0,0,270.7,46.59ZM264.3,67.3h-4.39L259,58.76h6.23Zm3.77-15.52-.58,4.48-1.53.47h-7.71l-1.53-.47-.59-4.48Z"/>
        <path d="M148.47,58.66V38.33h3.66c4.69,12.2,5.49,14.27,5.74,15.22h0c-.16-2.54-.18-5.55-.18-8.88V38.33h2.86V58.66h-3.51c-4.85-12.94-5.61-15-5.86-15.89h0c.15,2.52.16,5.63.16,9.28v6.61Z"/>
        <path d="M176.34,48.33c0,7.26-1.89,10.66-6.48,10.66-4.31,0-6.31-3.32-6.31-10.68,0-7.19,2.33-10.3,6.45-10.3C174.36,38,176.34,41.33,176.34,48.33Zm-9.55-.06c0,5.16.88,8,3.15,8s3.16-2.72,3.16-8c0-5.13-.85-7.58-3.17-7.58S166.79,43.4,166.79,48.27Z"/>
        <path d="M182.46,49.75v8.91h-3.15V38.33h5.92c3.59,0,5.58,1.93,5.58,5.45,0,3-1.54,4.25-2.66,4.67,1.68.71,2.37,2.16,2.37,5.11v.81a22.93,22.93,0,0,0,.28,4.29h-3.08a17.75,17.75,0,0,1-.33-4.33v-.72c0-2.78-.61-3.86-3.06-3.86Zm0-2.59h2c2.29,0,3.18-1.1,3.18-3.26,0-1.85-.88-3-2.87-3h-2.32Z"/>
        <path d="M206.74,50.72c0-3.58.06-7.49.12-9.74h-.07c-.72,3.74-2.09,11.15-3.53,17.68h-2.89c-1.07-5.95-2.5-13.86-3.18-17.73h-.1c.12,2.37.21,6.7.21,10.21v7.52h-2.91V38.33h4.72c1.26,5.88,2.42,12.26,2.85,15.12h0c.4-2.56,1.92-9.48,3.17-15.12h4.62V58.66h-3Z"/>
        <path d="M216.32,53.09l-1.17,5.57H212l4.78-20.33h4.1l4.86,20.33H222.4l-1.18-5.57Zm4.32-2.76c-.91-4.27-1.57-7.23-1.87-9.06h-.08c-.26,1.84-1,5.1-1.8,9.06Z"/>
        <path d="M227.92,38.33h3.16V55.94h7.07l-.35,2.72h-9.88Z"/>
        <path d="M240.75,42.55v1.69H240v-4h1.21a1,1,0,0,1,1.13,1.08.9.9,0,0,1-.51.91c.31.14.45.4.45,1v.16a5,5,0,0,0,.05.83h-.68a3.11,3.11,0,0,1-.07-.83v-.15c0-.53-.12-.71-.57-.71Zm0-.57h.33c.43,0,.6-.19.6-.59a.47.47,0,0,0-.53-.53h-.4Z"/>
        <path d="M241.14,46.2a3.94,3.94,0,1,1,3.93-3.94A3.95,3.95,0,0,1,241.14,46.2Zm0-7.14a3.21,3.21,0,1,0,3.2,3.2A3.21,3.21,0,0,0,241.14,39.06Z"/>
        <path d="M54,57.58H27.08V54H54a2.73,2.73,0,0,0,2.72-2.73V29.49A2.73,2.73,0,0,0,54,26.76H48.38v-3.6H54a6.34,6.34,0,0,1,6.32,6.33V51.25A6.34,6.34,0,0,1,54,57.58Z"/>
        <circle cx="237.07" cy="115.82" r="23.07"/>
        <circle cx="237.07" cy="115.82" r="17.91"/>
        <circle cx="237.07" cy="115.82" r="11.71"/>
        <path d="M307.25,117.62h-28c-3,0-4.25-2.65-4.86-3.92-13-27-36.17-25.25-37.14-25.16h-.17a27.17,27.17,0,0,0-27.13,24.55,5,5,0,0,1-5,4.52H81.72a5,5,0,0,1-5-4.52,27.27,27.27,0,0,0-54.27,0,5,5,0,0,1-5,4.52h-.77a5.2,5.2,0,0,1-5.08-6.36L23.17,60a23.74,23.74,0,0,1,3.68-8.34L44.43,26.44A68.22,68.22,0,0,1,98.54,0H293.38a14.07,14.07,0,0,1,14.07,12.8l5,99.2a5.2,5.2,0,0,1-5.19,5.62ZM238.53,84.9A39.53,39.53,0,0,1,252,87.44c7.61,2.83,18.24,9.41,25.62,24.7h0c.76,1.57,1.18,1.88,1.62,1.88h28a1.6,1.6,0,0,0,1.19-.52,1.64,1.64,0,0,0,.41-1.24l-5-99.2A10.47,10.47,0,0,0,293.38,3.6H98.54a64.61,64.61,0,0,0-51.22,25L29.8,53.76a20.26,20.26,0,0,0-3.12,7.08L15,112.06a1.59,1.59,0,0,0,.31,1.36,1.61,1.61,0,0,0,1.26.6h.77a1.45,1.45,0,0,0,1.45-1.28,30.87,30.87,0,0,1,61.43,0A1.47,1.47,0,0,0,81.72,114H204.9a1.45,1.45,0,0,0,1.45-1.28A30.77,30.77,0,0,1,237,85C237.21,84.94,237.74,84.9,238.53,84.9Z"/>
        <path d="M110.85,34.56V52.18H83.93V34.56h26.92m.9-3.6H83a2.7,2.7,0,0,0-2.7,2.7V53.08a2.7,2.7,0,0,0,2.7,2.7h28.72a2.7,2.7,0,0,0,2.7-2.7V33.66a2.7,2.7,0,0,0-2.7-2.7Z"/>
        <path d="M91.35,11.4H84.89a1.8,1.8,0,1,1,0-3.6h6.46a1.8,1.8,0,1,1,0,3.6Z"/>
        <path d="M82,80.58a1.8,1.8,0,0,1-1.8-1.8V64.54a1.8,1.8,0,1,1,3.6,0V78.78A1.81,1.81,0,0,1,82,80.58Z"/>
        <path d="M19.78,65.72H14.31a3.6,3.6,0,0,1-3.59-3.6v-4.6a3.59,3.59,0,0,1,3.59-3.59h5.47a5.9,5.9,0,0,1,0,11.79Zm-5.47-8.19v4.59h5.46a2.3,2.3,0,0,0,0-4.59Z"/>
        <circle cx="49.5" cy="115.82" r="23.07"/>
        <circle cx="49.5" cy="115.82" r="17.91"/>
        <circle cx="49.5" cy="115.82" r="11.71"/>
    </g>
</symbol>

<symbol id="store" viewBox="0 0 294.37 192.14">
    <g>
        <path d="M37.32,61.38c0-.13,0-.26-.07-.38s0,0,0,0a2,2,0,0,0-.12-.34,1.08,1.08,0,0,0-.08-.19L37,60.31A3.23,3.23,0,0,0,35.72,59h0l0,0-.88-.38a3.32,3.32,0,0,0-.74-5.95,3.31,3.31,0,0,0,.33-.32h0a3.2,3.2,0,0,0-1.19-5.08l-.07,0L30,46a2.38,2.38,0,0,1-1.52-2.23,2.22,2.22,0,0,1,.19-.91l.18-.44-.47-.1a4.21,4.21,0,0,0-.87-.09,4.33,4.33,0,0,0-3.34,7.07,3.14,3.14,0,0,0-.67.17h0l0,0-.37.17,0,0a3.19,3.19,0,0,0-1.62,2.76,2.73,2.73,0,0,0,.05.5v0a3.28,3.28,0,0,0,.11.45v0a2.78,2.78,0,0,0,.16.4.64.64,0,0,0,.08.14,2.25,2.25,0,0,0,.12.21l.13.18h0a3,3,0,0,0,.46.48h0a2.78,2.78,0,0,0-.71.21h0a2.9,2.9,0,0,0-.54.31l-.08.06a1.57,1.57,0,0,0-.21.17,1.88,1.88,0,0,0-.25.24l0,0a3.18,3.18,0,0,0,.41,4.64,3.17,3.17,0,0,0-.68,5.38l.9,6.89,2.2.68,1.17,10.85h8.1L34,73.49l2.2-.68L37,66l0-.16c-.08-.68-.7-1.06-1.27-1.29a3.14,3.14,0,0,0,1.54-2.41h0c0-.11,0-.21,0-.31a3.13,3.13,0,0,0,0-.44ZM30.93,82.1H26.54l-.93-8.55h6.24Zm3.19-11-1.53.48H24.88l-1.53-.48-.59-4.47H34.7Z"/>
        <path d="M127,46.22c0-3.65,0-6.76-.16-9.27h0c.25.88,1,2.94,5.86,15.88h3.51V32.5h-2.86v6.35c0,3.32,0,6.34.18,8.88h0c-.25-1-1.05-3-5.74-15.23h-3.66V52.83H127Z"/>
        <path d="M145.52,53.17c4.59,0,6.48-3.4,6.48-10.67,0-7-2-10.31-6.34-10.31-4.12,0-6.45,3.1-6.45,10.3S141.2,53.17,145.52,53.17Zm.07-18.29c2.32,0,3.17,2.45,3.17,7.59,0,5.3-.79,8-3.16,8s-3.15-2.89-3.15-8C142.45,37.57,143.31,34.88,145.59,34.88Z"/>
        <path d="M158.12,43.93H160c2.45,0,3.06,1.08,3.06,3.85v.73a17.71,17.71,0,0,0,.33,4.32h3.08a22.88,22.88,0,0,1-.28-4.28v-.81c0-3-.69-4.4-2.37-5.12,1.12-.42,2.66-1.7,2.66-4.67,0-3.52-2-5.45-5.59-5.45H155V52.83h3.15Zm0-8.84h2.32c2,0,2.86,1.14,2.86,3,0,2.16-.88,3.26-3.17,3.26h-2Z"/>
        <path d="M173,45.31c0-3.5-.09-7.84-.21-10.21h.1C173.53,39,175,46.89,176,52.83h2.89c1.43-6.53,2.81-13.94,3.52-17.68h.08c-.06,2.25-.12,6.16-.12,9.74v7.94h3V32.5h-4.62c-1.25,5.64-2.77,12.56-3.17,15.13h0c-.43-2.87-1.59-9.25-2.85-15.13h-4.72V52.83H173Z"/>
        <path d="M192,47.26h4.91l1.18,5.57h3.32L196.52,32.5h-4.1l-4.78,20.33h3.16Zm2.38-11.82h.08c.3,1.83,1,4.79,1.86,9.06h-3.74C193.38,40.54,194.09,37.28,194.35,35.44Z"/>
        <polygon points="213.8 50.12 206.74 50.12 206.74 32.5 203.58 32.5 203.58 52.83 213.46 52.83 213.8 50.12"/>
        <path d="M216.41,36.73h.3c.45,0,.57.18.57.7v.15a3.24,3.24,0,0,0,.07.84H218a5.05,5.05,0,0,1-.05-.83v-.16c0-.59-.15-.85-.45-1a.9.9,0,0,0,.51-.9,1,1,0,0,0-1.13-1.09H215.7v4h.71Zm0-1.7h.4a.47.47,0,0,1,.52.54c0,.4-.16.58-.59.58h-.33Z"/>
        <path d="M216.79,40.37a3.94,3.94,0,1,0-3.93-3.94A3.95,3.95,0,0,0,216.79,40.37Zm0-7.14a3.21,3.21,0,1,1-3.2,3.2A3.21,3.21,0,0,1,216.79,33.23Z"/>
        <path d="M294.37,0H46.67V23.67H63.25v23.5H51.5a28.29,28.29,0,1,0,0,32.26H63.25V192.14H172.61v-15.4H161.19v-8.21h16.43V192h3.6V168.53h56.67v23.61h37.72V23.67h18.76ZM63.25,50.77v4.1h-8a29.25,29.25,0,0,0-1.65-4.1Zm-7.1,7.7h7.1v9.66h-7.1a28,28,0,0,0,0-9.66ZM28.29,88A24.69,24.69,0,1,1,53,63.3,24.72,24.72,0,0,1,28.29,88ZM53.64,75.83a28.77,28.77,0,0,0,1.65-4.1h8v4.1ZM97.37,188.54H66.85V23.67h7.78V46.43h15V23.67h7.77V188.54ZM78.23,23.67H86V42.83H78.23Zm79.36,120.77-10.77-6.6h-5.7V65.28h16.47v79.16Zm-20.18-6.6h-4.1V69.38H105.07v68.46H101V65.28h36.44Zm-28.74,3.6h21v15.79h-21Zm0-3.6V73h21v64.86Zm-7.7,3.6h4.1v19.39h28.24V141.44h4.1v23.49H101Zm40.15,0h4.69l11.78,7.22v16.27H141.12Zm20.07-76.16h56.63v72.56H161.19Zm60.23,0h16.47v72.56H221.42Zm16.47-3.6H101v-38H237.89ZM169,180.34v8.2H101v-20h56.62v11.81Zm-7.82-15.41V150.87l16.43,10.06v4Zm20,0v-6l-20-12.26v-5.21h76.7v23.49ZM272,188.54H241.49V23.67h7.77V46.43h15V23.67H272ZM252.86,23.67h7.78V42.83h-7.78Zm37.91-3.6H50.27V3.6h240.5Z"/>
        <path d="M124.12,106.19a1.8,1.8,0,0,0-1.8,1.8v14.23a1.8,1.8,0,1,0,3.6,0V108A1.81,1.81,0,0,0,124.12,106.19Z"/>
    </g>
</symbol>
  
  

</svg>