<?xml version="1.0" encoding="utf-8"?>
<svg version="1.1" xmlns="http://www.w3.org/2000/svg" xmlns:xlink="http://www.w3.org/1999/xlink">

<symbol id="instagram" viewBox="0 0 24 24">
    <title>Instagram</title> 
    <desc>Instagram Logo</desc>
    <path d="M12 2.163c3.204 0 3.584.012 4.85.07 3.252.148 4.771 1.691 4.919 4.919.058 1.265.069 1.645.069 4.849 0 3.205-.012 3.584-.069 4.849-.149 3.225-1.664 4.771-4.919 4.919-1.266.058-1.644.07-4.85.07-3.204 0-3.584-.012-4.849-.07-3.26-.149-4.771-1.699-4.919-4.92-.058-1.265-.07-1.644-.07-4.849 0-3.204.013-3.583.07-4.849.149-3.227 1.664-4.771 4.919-4.919 1.266-.057 1.645-.069 4.849-.069zm0-2.163c-3.259 0-3.667.014-4.947.072-4.358.2-6.78 2.618-6.98 6.98-.059 1.281-.073 1.689-.073 4.948 0 3.259.014 3.668.072 4.948.2 4.358 2.618 6.78 6.98 6.98 1.281.058 1.689.072 4.948.072 3.259 0 3.668-.014 4.948-.072 4.354-.2 6.782-2.618 6.979-6.98.059-1.28.073-1.689.073-4.948 0-3.259-.014-3.667-.072-4.947-.196-4.354-2.617-6.78-6.979-6.98-1.281-.059-1.69-.073-4.949-.073zm0 5.838c-3.403 0-6.162 2.759-6.162 6.162s2.759 6.163 6.162 6.163 6.162-2.759 6.162-6.163c0-3.403-2.759-6.162-6.162-6.162zm0 10.162c-2.209 0-4-1.79-4-4 0-2.209 1.791-4 4-4s4 1.791 4 4c0 2.21-1.791 4-4 4zm6.406-11.845c-.796 0-1.441.645-1.441 1.44s.645 1.44 1.441 1.44c.795 0 1.439-.645 1.439-1.44s-.644-1.44-1.439-1.44z"></path>
</symbol>

<symbol id="hamburger" viewBox="0 0 40 30">
    <g>
        <rect height="5" width="21.77" />
        <rect height="5" width="27.91" y="22.33" />
        <rect height="5" width="37.95" y="11.16" />
    </g>
</symbol>

<symbol id="normal" viewBox="0 0 150 150">
    <g>
        <path d="M111.18,82.63l1.88,1.1-.46.78-4.41-2.57.79-1.35a1.28,1.28,0,0,1,1.94-.56,1.16,1.16,0,0,1,.67,1.16c.36-.25.74-.24,1.4.14l.17.11a6.86,6.86,0,0,0,1,.48l-.45.76a4.15,4.15,0,0,1-1-.47l-.16-.09c-.59-.35-.87-.33-1.16.17Zm-.64-.37.22-.38a.65.65,0,0,0-.27-1,.61.61,0,0,0-.94.24l-.26.44Z"/>
        <path d="M115.49,84.57a5.07,5.07,0,1,1-1.82-6.95A5.08,5.08,0,0,1,115.49,84.57Zm-7.95-4.65a4.13,4.13,0,1,0,5.65-1.48A4.13,4.13,0,0,0,107.54,79.92Z" />
        <path d="M22.26,84.3l17.1-6.42,1.31,3.48c-8.13,7.09-9.67,8.44-10.44,9v0c2-.92,4.52-1.87,7.32-2.92l4.72-1.77,1,2.73-17.1,6.42L25,91.48c8.71-7.44,10.28-8.77,11-9.28v0c-2.06.92-4.57,1.87-7.64,3l-5,1.87Z" />
        <path d="M47.33,106c-4.66,4.79-8,5.6-11,2.66-2.82-2.75-2.19-6.14,2.53-11s8-5.07,10.75-2.44C52.46,98.08,51.76,101.5,47.33,106Zm-6-6c-3,3.11-4.35,5.41-3,6.75s3.52.1,6.68-3.13c3-3,4.06-5,2.64-6.44S44.12,97.13,41.28,100Z" />
        <path d="M56.47,112.36l-2.6,7.35-3.07-1.09,6.11-17.22,5.27,1.87c3.13,1.11,4.33,3.37,3.24,6.44-.88,2.49-2.6,3.1-3.62,3.13,1.11,1.1,1.34,2.46.43,5l-.24.69a22.08,22.08,0,0,0-1.05,3.69l-3-1.06a15.35,15.35,0,0,1,1-3.74l.23-.63c.81-2.3.56-3.27-1.38-4Zm.89-2.49,1.45.51c1.86.66,2.87.12,3.49-1.62a2.19,2.19,0,0,0-1.46-3.16L59.09,105Z" />
        <path d="M83.18,115.49c-.44-3.09-.88-6.63-1.12-8.69H82c-.13,3.52-.27,9.77-.63,15.8l-2.92.41c-1.65-5.33-3.61-11.68-4.69-15.1l-.1,0c.41,2.1,1,5.88,1.47,9l.91,6.42-3,.42-2.56-18.09,4.85-.69c1.65,4.87,3.19,9.8,3.93,12.39h0c0-2.51.38-8.12.65-13l4.73-.67,2.55,18.09-3.1.44Z" />
        <path d="M97.3,112l1.79,4.33-2.73,1.81-6.58-17.55,3.54-2.35L107,111.06l-2.86,1.9-3.3-3.33Zm1.47-4.38c-2.5-2.53-4.37-4.36-5.58-5.65l-.06,0c.75,1.52,1.78,4.13,3.08,7.31Z" />
        <path d="M98.68,93.4l1.82-2.72,12.86,8.59,3.47-5.19L119,95.89l-5.12,7.66Z" />
        <path d="M73.38,146.76a73.38,73.38,0,1,1,73.38-73.38A73.47,73.47,0,0,1,73.38,146.76Zm0-143.26a69.88,69.88,0,1,0,69.88,69.88A70,70,0,0,0,73.38,3.5Z" />
        <path d="M95.44,48.31c-2.93-13.06-10.77-22-17.82-20.46-4.7,1-7.7,6.5-8.32,13.88-3.71-6.41-8.75-10-13.45-9C48.79,34.33,45.56,45.8,48.5,58.87a37.25,37.25,0,0,0,7,15.27c2.89,3.52,6.1,5.38,9.19,5.38a7.17,7.17,0,0,0,1.66-.19C71,78.27,74,72.82,74.64,65.43a28.72,28.72,0,0,0,2.6,3.82c2.89,3.51,6.1,5.37,9.18,5.37a7.83,7.83,0,0,0,1.67-.18c3.59-.81,6.28-4.13,7.59-9.34A37.33,37.33,0,0,0,95.44,48.31Zm-17.06-17a4.28,4.28,0,0,1,.87-.09c4.15,0,9.66,6.09,12.36,16.21L73.34,51.49C71.31,40.45,74.17,32.21,78.38,31.26Zm-21.76,4.9a3.55,3.55,0,0,1,.86-.1c4.15,0,9.66,6.1,12.36,16.22l-18.27,4.1C49.54,45.35,52.4,37.1,56.62,36.16Zm8.94,39.76c-2.2.49-4.89-1-7.38-4a24,24,0,0,1-2-2.8,6.24,6.24,0,0,0,5.84.62c3.26-1.39,4.64-5.48,3.08-9.14a7.69,7.69,0,0,0-2.41-3.13l7.89-1.78C72.63,66.73,69.77,75,65.56,75.92ZM92.28,64.25c-1,3.81-2.76,6.28-5,6.77s-4.89-1-7.38-4a23.51,23.51,0,0,1-2-2.87,6.24,6.24,0,0,0,5.94.7c3.27-1.4,4.65-5.49,3.09-9.14a7.88,7.88,0,0,0-2.43-3.15l7.84-1.77A32.42,32.42,0,0,1,92.28,64.25Z"/>
</g>
</symbol>


<symbol id="reg" viewBox="0 0 250 400">
    <g>
        <circle cx="125" cy="125" r="100" stroke-width="20px" fill="none"/>
        <text x="125" y="135" text-anchor="middle" font-size="180px" dy=".3em">R</text>
    </g>
</symbol>

<symbol id="v" viewBox="0 0 250 300">
    <g>
        <circle cx="125" cy="125" r="100" stroke-width="20px" fill="none"/>
        <text x="125" y="125" text-anchor="middle" font-size="180px" dy=".3em">v</text>
    </g>
</symbol>

<symbol id="gf" viewBox="0 0 250 300">
    <g>
        <circle cx="125" cy="125" r="100" stroke-width="20px" fill="none"/>
        <text x="125" y="135" text-anchor="middle" font-size="150px" dy=".3em">gf</text>
    </g>
</symbol>

<symbol id="minus" viewBox="0 0 32 32">
    <mask id="minusMask">
        <rect x="0" y="0" width="32" height="32" fill="white"></rect>
        <text x="16" text-anchor="middle" alignment-baseline="middle" y="16" fill="black" font-size="50">-</text>
    </mask>    
    <circle cx="50%" cy="50%" r="50%" mask="url(/icons.svg#minusMask)"></circle>
</symbol>

<symbol id="plus" viewBox="0 0 32 32">
        <mask id="plusMask">
            <rect x="0" y="0" width="32" height="32" fill="white"></rect>
            <text x="16" text-anchor="middle" alignment-baseline="middle" y="21" fill="black" font-size="40">+</text>
        </mask>    
        <circle cx="50%" cy="50%" r="50%" mask="url(/icons.svg#plusMask)"></circle>
</symbol>

<symbol id="back" viewBox="0 0 24 24" >
    <g>
        <path d="M19.66,11.3c0.01-0.34-0.11-0.68-0.34-0.94c-0.22-0.26-0.54-0.4-0.88-0.39h-7.32l3.05-3  c0.52-0.52,0.53-1.36,0.01-1.88c0,0-0.01-0.01-0.01-0.01l-0.78-0.77c-0.51-0.52-1.35-0.53-1.87-0.01c0,0-0.01,0.01-0.01,0.01  l-6.79,6.71c-0.25,0.25-0.39,0.59-0.39,0.95c-0.01,0.35,0.14,0.69,0.39,0.94l6.78,6.79c0.25,0.25,0.59,0.39,0.95,0.39  c0.35,0.01,0.69-0.14,0.94-0.39l0.78-0.79c0.52-0.51,0.52-1.34,0.02-1.85c-0.01-0.01-0.01-0.01-0.02-0.02l-3.05-3.07h7.33  c0.34,0.01,0.66-0.13,0.88-0.39c0.23-0.26,0.35-0.6,0.34-0.94V11.3l0,0H19.66z"/>
    </g>
</symbol>

<symbol id="next" viewBox="0 0 24 24" >
    <g>
        <path d="M20.05,8.23c0-0.27-0.1-0.52-0.29-0.71l-1.42-1.41c-0.39-0.39-1.02-0.39-1.41-0.01c0,0,0,0-0.01,0.01l-6.83,6.84  L7.03,9.88C6.64,9.49,6.01,9.49,5.62,9.87c0,0,0,0-0.01,0.01L4.2,11.29c-0.39,0.39-0.39,1.02-0.01,1.41c0,0,0,0,0.01,0.01l5.18,5.18  c0.39,0.39,1.02,0.39,1.41,0.01c0,0,0,0,0.01-0.01l9-9c0.19-0.19,0.29-0.44,0.29-0.71l0,0L20.05,8.23z"/>
    </g>
</symbol>

<symbol id="close" viewBox="0 0 24 24" >
    <g>
        <path d="M14.9,16.42c-0.13,0.13-0.33,0.14-0.47,0.01c0,0-0.01-0.01-0.01-0.01L12,14l-2.43,2.42  c-0.13,0.13-0.33,0.14-0.47,0.01c0,0-0.01-0.01-0.01-0.01L7.58,14.9c-0.13-0.13-0.14-0.33-0.01-0.47c0,0,0.01-0.01,0.01-0.01L10,12  L7.58,9.57C7.45,9.45,7.44,9.24,7.57,9.1c0,0,0.01-0.01,0.01-0.01L9.1,7.58c0.13-0.13,0.33-0.14,0.47-0.01c0,0,0.01,0.01,0.01,0.01  L12,10l2.43-2.43c0.13-0.13,0.33-0.14,0.47-0.01c0,0,0.01,0.01,0.01,0.01l1.51,1.53c0.13,0.13,0.14,0.33,0.01,0.47  c0,0-0.01,0.01-0.01,0.01L14,12l2.43,2.43c0.13,0.13,0.14,0.33,0.01,0.47c0,0-0.01,0.01-0.01,0.01L14.9,16.42L14.9,16.42z   M20.84,4.49C20.53,4.17,20.1,3.99,19.66,4H4.34C3.42,4,2.67,4.75,2.67,5.67l0,0v12.66c0,0.92,0.75,1.67,1.67,1.67l0,0h15.32  c0.92,0,1.67-0.75,1.67-1.67l0,0V5.67C21.34,5.23,21.16,4.8,20.84,4.49z"/>
    </g>
</symbol>

<symbol id="arrow" viewBox="0 0 24 24">
    <g>
        <path d="M19.66,11.3c0.01-0.34-0.11-0.68-0.34-0.94c-0.22-0.26-0.54-0.4-0.88-0.39h-7.32l3.05-3  c0.52-0.52,0.53-1.36,0.01-1.88c0,0-0.01-0.01-0.01-0.01l-0.78-0.77c-0.51-0.52-1.35-0.53-1.87-0.01c0,0-0.01,0.01-0.01,0.01  l-6.79,6.71c-0.25,0.25-0.39,0.59-0.39,0.95c-0.01,0.35,0.14,0.69,0.39,0.94l6.78,6.79c0.25,0.25,0.59,0.39,0.95,0.39  c0.35,0.01,0.69-0.14,0.94-0.39l0.78-0.79c0.52-0.51,0.52-1.34,0.02-1.85c-0.01-0.01-0.01-0.01-0.02-0.02l-3.05-3.07h7.33  c0.34,0.01,0.66-0.13,0.88-0.39c0.23-0.26,0.35-0.6,0.34-0.94V11.3l0,0H19.66z"></path>
    </g>
</symbol>

<symbol id="lab" viewBox="0 0 323.85 90">
	<path d="M295.4,19.1H56.1c-1,0-1.8-0.8-1.8-1.8c0-1,0.8-1.8,1.8-1.8h239.3c1,0,1.8,0.8,1.8,1.8
		C297.1,18.3,296.3,19.1,295.4,19.1z"/>
	<path d="M295.4,11.4h-6.5c-1,0-1.8-0.8-1.8-1.8s0.8-1.8,1.8-1.8h6.5c1,0,1.8,0.8,1.8,1.8S296.3,11.4,295.4,11.4z"/>
	<path d="M116.2,109.9H91.1c-2,0-3.9-0.9-5-2.6L73.6,89.6c-0.7-1-1.1-2.2-1.1-3.5V29.2c0-3.3,2.7-6,6-6h37.7
		c3.3,0,6,2.7,6,6v74.7C122.2,107.2,119.5,109.9,116.2,109.9z M78.6,26.8c-1.4,0-2.4,1.1-2.4,2.5v56.9c0,0.5,0.2,1,0.4,1.4
		l12.5,17.8c0.5,0.6,1.2,1,2,1h25.1c1.4,0,2.4-1.1,2.4-2.4V29.2c0-1.4-1.1-2.4-2.4-2.5L78.6,26.8z"/>
	<path d="M298.4,80.6H120.4c-1,0-1.8-0.8-1.8-1.8c0-1,0.8-1.8,1.8-1.8h177.9c1,0,1.8,0.8,1.8,1.8
		C300.1,79.8,299.3,80.6,298.4,80.6L298.4,80.6z"/>
	<path d="M296.4,99.7h-13.6c-2.1,0-3.8-1.7-3.8-3.8v-7.4c0-2.1,1.7-3.8,3.8-3.8h13.6c2.1,0,3.8,1.7,3.8,3.8v7.4
		C300.1,97.9,298.5,99.6,296.4,99.7z M282.8,88.2c-0.1,0-0.2,0.1-0.2,0.2v0v7.4c0,0.1,0.1,0.2,0.2,0.2l0,0h13.6
		c0.1,0,0.2-0.1,0.2-0.2v0v-7.4c0-0.1-0.1-0.2-0.2-0.2l0,0H282.8z"/>
	<path d="M319.8,123.7h-6.9c-2.2,0-4.1-1.8-4.1-4.1v-18.1c0-2.2,1.8-4.1,4.1-4.1h6.9c2.2,0,4.1,1.8,4.1,4.1v18.1
		C323.9,121.9,322,123.7,319.8,123.7L319.8,123.7z M312.9,101.1c-0.3,0-0.5,0.2-0.5,0.5l0,0v18.1c0,0.3,0.2,0.5,0.5,0.5h6.9
		c0.3,0,0.5-0.2,0.5-0.5v-18.1c0-0.3-0.2-0.5-0.5-0.5L312.9,101.1z"/>
	<path d="M10.9,123.7H4.1c-2.2,0-4.1-1.8-4.1-4.1v-11.1c0-2.2,1.8-4.1,4.1-4.1h6.9c2.2,0,4.1,1.8,4.1,4.1v11.1
		C15,121.9,13.2,123.7,10.9,123.7z M4.1,108.1c-0.3,0-0.5,0.2-0.5,0.5v11.1c0,0.3,0.2,0.5,0.5,0.5h6.9c0.3,0,0.5-0.2,0.5-0.5v-11.1
		c0-0.3-0.2-0.5-0.5-0.5c0,0,0,0,0,0H4.1z"/>
	<path d="M57.3,80.6h-4.6c-1.6,0-3-1.4-3-3V65.8c0-1.6,1.4-3,3-3h4.6c1.7,0,3,1.3,3,3v11.8C60.3,79.2,59,80.6,57.3,80.6
		C57.3,80.6,57.3,80.6,57.3,80.6z M53.3,77h3.5V66.3h-3.5L53.3,77z"/>
	<path d="M270.7,46.6L270.7,46.6c0-0.1,0-0.3-0.1-0.4c0,0,0,0,0,0c0-0.1-0.1-0.2-0.1-0.3c0-0.1,0-0.1-0.1-0.2l-0.1-0.1
		c-0.3-0.5-0.7-1-1.2-1.3l0,0c-0.2-0.1-0.5-0.2-0.9-0.4c1.6-1,2-3,1.1-4.6c-0.4-0.7-1.1-1.2-1.8-1.4c0.1-0.1,0.2-0.2,0.3-0.3l0,0
		c0.2-0.3,0.4-0.6,0.6-0.9c0.7-1.6-0.1-3.5-1.8-4.2c0,0,0,0,0,0h-0.1l-3.2-1.2c-0.9-0.3-1.6-1.2-1.6-2.2c0-0.3,0.1-0.6,0.2-0.9
		l0.2-0.4l-0.5-0.1c-0.3-0.1-0.6-0.1-0.9-0.1c-2.4,0-4.3,1.9-4.3,4.3c0,1,0.3,2,1,2.7c-0.2,0-0.5,0.1-0.7,0.2l0,0l0,0l-0.4,0.2l0,0
		c-1,0.6-1.6,1.6-1.6,2.8c0,0.2,0,0.3,0,0.5l0,0c0,0.2,0.1,0.3,0.1,0.5l0,0c0,0.1,0.1,0.3,0.2,0.4c0,0,0.1,0.1,0.1,0.1l0.1,0.2
		l0.1,0.2l0,0c0.1,0.2,0.3,0.3,0.4,0.5l0,0c-0.2,0-0.5,0.1-0.7,0.2l0,0c-0.2,0.1-0.4,0.2-0.5,0.3l-0.1,0.1l-0.2,0.2
		c-0.1,0.1-0.2,0.2-0.2,0.2l0,0c-1.2,1.3-1.1,3.3,0.2,4.5c0.1,0.1,0.1,0.1,0.2,0.1c-1.1,0.5-1.9,1.7-1.9,2.9c0,1,0.4,1.9,1.2,2.5
		l0.9,6.9l2.2,0.7l1.2,10.8h8.1l1.2-10.8l2.2-0.7l0.9-6.8v-0.2c-0.2-0.6-0.6-1.1-1.3-1.3c0.9-0.5,1.4-1.4,1.5-2.4l0,0
		c0-0.1,0-0.2,0-0.3C270.7,46.8,270.7,46.7,270.7,46.6z M264.3,67.3h-4.4l-0.9-8.5h6.2L264.3,67.3z M268.1,51.8l-0.6,4.5l-1.5,0.5
		h-7.7l-1.5-0.5l-0.6-4.5H268.1z"/>
	<path d="M148.5,58.7V38.3h3.7c4.7,12.2,5.5,14.3,5.7,15.2l0,0c-0.2-2.5-0.2-5.5-0.2-8.9v-6.3h2.9v20.3H157
		c-4.9-12.9-5.6-15-5.9-15.9l0,0c0.1,2.5,0.2,5.6,0.2,9.3v6.6H148.5z"/>
	<path d="M176.3,48.3c0,7.3-1.9,10.7-6.5,10.7c-4.3,0-6.3-3.3-6.3-10.7c0-7.2,2.3-10.3,6.4-10.3
		C174.4,38,176.3,41.3,176.3,48.3z M166.8,48.3c0,5.2,0.9,8,3.1,8s3.2-2.7,3.2-8c0-5.1-0.9-7.6-3.2-7.6S166.8,43.4,166.8,48.3z"/>
	<path d="M182.5,49.8v8.9h-3.1V38.3h5.9c3.6,0,5.6,1.9,5.6,5.5c0,3-1.5,4.2-2.7,4.7c1.7,0.7,2.4,2.2,2.4,5.1v0.8
		c0,1.4,0.1,2.9,0.3,4.3h-3.1c-0.3-1.4-0.4-2.9-0.3-4.3v-0.7c0-2.8-0.6-3.9-3.1-3.9L182.5,49.8z M182.5,47.2h2
		c2.3,0,3.2-1.1,3.2-3.3c0-1.8-0.9-3-2.9-3h-2.3L182.5,47.2z"/>
	<path d="M206.7,50.7c0-3.6,0.1-7.5,0.1-9.7h-0.1c-0.7,3.7-2.1,11.2-3.5,17.7h-2.9c-1.1-6-2.5-13.9-3.2-17.7h-0.1
		c0.1,2.4,0.2,6.7,0.2,10.2v7.5h-2.9V38.3h4.7c1.3,5.9,2.4,12.3,2.9,15.1l0,0c0.4-2.6,1.9-9.5,3.2-15.1h4.6v20.3h-3L206.7,50.7z"/>
	<path d="M216.3,53.1l-1.2,5.6H212l4.8-20.3h4.1l4.9,20.3h-3.3l-1.2-5.6L216.3,53.1z M220.6,50.3
		c-0.9-4.3-1.6-7.2-1.9-9.1h-0.1c-0.3,1.8-1,5.1-1.8,9.1H220.6z"/>
	<path d="M227.9,38.3h3.2v17.6h7.1l-0.4,2.7h-9.9V38.3z"/>
	<path d="M240.8,42.5v1.7H240v-4h1.2c0.5-0.1,1.1,0.3,1.1,0.9c0,0.1,0,0.1,0,0.2c0,0.4-0.2,0.7-0.5,0.9
		c0.3,0.1,0.4,0.4,0.4,1v0.2c0,0.3,0,0.6,0.1,0.8h-0.7c-0.1-0.3-0.1-0.6-0.1-0.8v-0.2c0-0.5-0.1-0.7-0.6-0.7L240.8,42.5z M240.8,42
		h0.3c0.4,0,0.6-0.2,0.6-0.6c0-0.3-0.1-0.5-0.4-0.5c0,0-0.1,0-0.1,0h-0.4L240.8,42z"/>
	<path d="M241.1,46.2c-2.2,0-3.9-1.8-3.9-3.9s1.8-3.9,3.9-3.9s3.9,1.8,3.9,3.9c0,0,0,0,0,0
		C245.1,44.4,243.3,46.2,241.1,46.2z M241.1,39.1c-1.8,0-3.2,1.4-3.2,3.2c0,1.8,1.4,3.2,3.2,3.2s3.2-1.4,3.2-3.2c0,0,0,0,0,0
		C244.3,40.5,242.9,39.1,241.1,39.1z"/>
	<path d="M54,57.6H27.1V54H54c1.5,0,2.7-1.2,2.7-2.7V29.5c0-1.5-1.2-2.7-2.7-2.7h-5.6v-3.6H54c3.5,0,6.3,2.8,6.3,6.3
		v21.8C60.3,54.7,57.5,57.6,54,57.6z"/>
	<path d="M237.1,92.7c-12.7,0-23.1,10.3-23.1,23.1s10.3,23.1,23.1,23.1s23.1-10.3,23.1-23.1S249.8,92.7,237.1,92.7z
		 M237.1,133.7c-9.9,0-17.9-8-17.9-17.9s8-17.9,17.9-17.9s17.9,8,17.9,17.9S247,133.7,237.1,133.7z"/>
	<circle cx="237.1" cy="115.8" r="11.7"/>
	<path d="M307.2,117.6h-28c-3,0-4.2-2.7-4.9-3.9c-13-27-36.2-25.2-37.1-25.2h-0.2c-14,0-25.8,10.6-27.1,24.6
		c-0.2,2.6-2.4,4.5-5,4.5H81.7c-2.6,0-4.8-1.9-5-4.5c-1.5-15-14.9-25.9-29.8-24.4C34,90,23.7,100.2,22.5,113.1
		c-0.2,2.6-2.4,4.5-5,4.5h-0.8c-2.9,0-5.2-2.3-5.2-5.2c0-0.4,0-0.8,0.1-1.2L23.2,60c0.7-3,1.9-5.8,3.7-8.3l17.6-25.2
		C57.4,9.7,77.4-0.1,98.5,0h194.8c7.3,0,13.4,5.5,14.1,12.8l5,99.2c0.2,2.9-1.9,5.4-4.8,5.6C307.5,117.6,307.4,117.6,307.2,117.6
		L307.2,117.6z M238.5,84.9c4.6,0.1,9.2,0.9,13.5,2.5c7.6,2.8,18.2,9.4,25.6,24.7l0,0c0.8,1.6,1.2,1.9,1.6,1.9h28
		c0.5,0,0.9-0.2,1.2-0.5c0.3-0.3,0.5-0.8,0.4-1.2l-5-99.2c-0.5-5.4-5.1-9.5-10.5-9.5H98.5c-20-0.1-38.9,9.2-51.2,25L29.8,53.8
		c-1.5,2.1-2.5,4.5-3.1,7.1L15,112.1c-0.1,0.5,0,1,0.3,1.4c0.3,0.4,0.8,0.6,1.3,0.6h0.8c0.7,0,1.4-0.5,1.5-1.3
		c1.7-17,16.8-29.3,33.8-27.6c14.6,1.5,26.2,13,27.6,27.6c0.1,0.7,0.8,1.3,1.5,1.3h123.2c0.7,0,1.4-0.5,1.4-1.3
		C207.9,97,221.2,85,237,85C237.2,84.9,237.7,84.9,238.5,84.9z"/>
	<path d="M110.8,34.6v17.6H83.9V34.6H110.8 M111.8,31H83c-1.5,0-2.7,1.2-2.7,2.7v19.4c0,1.5,1.2,2.7,2.7,2.7h28.7
		c1.5,0,2.7-1.2,2.7-2.7V33.7C114.4,32.2,113.2,31,111.8,31L111.8,31z"/>
	<path d="M91.3,11.4h-6.5c-1,0-1.8-0.8-1.8-1.8s0.8-1.8,1.8-1.8l0,0h6.5c1,0,1.8,0.8,1.8,1.8S92.3,11.4,91.3,11.4z"/>
	<path d="M82,80.6c-1,0-1.8-0.8-1.8-1.8v0V64.5c0-1,0.8-1.8,1.8-1.8c1,0,1.8,0.8,1.8,1.8c0,0,0,0,0,0v14.2
		C83.8,79.8,83,80.6,82,80.6z"/>
	<path d="M19.8,65.7h-5.5c-2,0-3.6-1.6-3.6-3.6v-4.6c0-2,1.6-3.6,3.6-3.6l0,0h5.5c3.3,0.1,5.8,2.9,5.7,6.1
		C25.3,63.1,22.8,65.6,19.8,65.7z M14.3,57.5v4.6h5.5c1.3-0.1,2.2-1.2,2.1-2.4c-0.1-1.2-1-2.1-2.1-2.1H14.3z"/>
	<path d="M49.5,92.7c-12.7,0-23.1,10.3-23.1,23.1s10.3,23.1,23.1,23.1s23.1-10.3,23.1-23.1S62.2,92.7,49.5,92.7z
				 M49.5,133.7c-9.9,0-17.9-8-17.9-17.9s8-17.9,17.9-17.9s17.9,8,17.9,17.9S59.4,133.7,49.5,133.7z"/>
	<circle cx="49.5" cy="115.8" r="11.7"/>
</symbol>

<symbol id="store" viewBox="0 0 345 192.14">
    <g>
        <path d="M37.32,61.38c0-.13,0-.26-.07-.38s0,0,0,0a2,2,0,0,0-.12-.34,1.08,1.08,0,0,0-.08-.19L37,60.31A3.23,3.23,0,0,0,35.72,59h0l0,0-.88-.38a3.32,3.32,0,0,0-.74-5.95,3.31,3.31,0,0,0,.33-.32h0a3.2,3.2,0,0,0-1.19-5.08l-.07,0L30,46a2.38,2.38,0,0,1-1.52-2.23,2.22,2.22,0,0,1,.19-.91l.18-.44-.47-.1a4.21,4.21,0,0,0-.87-.09,4.33,4.33,0,0,0-3.34,7.07,3.14,3.14,0,0,0-.67.17h0l0,0-.37.17,0,0a3.19,3.19,0,0,0-1.62,2.76,2.73,2.73,0,0,0,.05.5v0a3.28,3.28,0,0,0,.11.45v0a2.78,2.78,0,0,0,.16.4.64.64,0,0,0,.08.14,2.25,2.25,0,0,0,.12.21l.13.18h0a3,3,0,0,0,.46.48h0a2.78,2.78,0,0,0-.71.21h0a2.9,2.9,0,0,0-.54.31l-.08.06a1.57,1.57,0,0,0-.21.17,1.88,1.88,0,0,0-.25.24l0,0a3.18,3.18,0,0,0,.41,4.64,3.17,3.17,0,0,0-.68,5.38l.9,6.89,2.2.68,1.17,10.85h8.1L34,73.49l2.2-.68L37,66l0-.16c-.08-.68-.7-1.06-1.27-1.29a3.14,3.14,0,0,0,1.54-2.41h0c0-.11,0-.21,0-.31a3.13,3.13,0,0,0,0-.44ZM30.93,82.1H26.54l-.93-8.55h6.24Zm3.19-11-1.53.48H24.88l-1.53-.48-.59-4.47H34.7Z"/>
        <path d="M127,46.22c0-3.65,0-6.76-.16-9.27h0c.25.88,1,2.94,5.86,15.88h3.51V32.5h-2.86v6.35c0,3.32,0,6.34.18,8.88h0c-.25-1-1.05-3-5.74-15.23h-3.66V52.83H127Z"/>
        <path d="M145.52,53.17c4.59,0,6.48-3.4,6.48-10.67,0-7-2-10.31-6.34-10.31-4.12,0-6.45,3.1-6.45,10.3S141.2,53.17,145.52,53.17Zm.07-18.29c2.32,0,3.17,2.45,3.17,7.59,0,5.3-.79,8-3.16,8s-3.15-2.89-3.15-8C142.45,37.57,143.31,34.88,145.59,34.88Z"/>
        <path d="M158.12,43.93H160c2.45,0,3.06,1.08,3.06,3.85v.73a17.71,17.71,0,0,0,.33,4.32h3.08a22.88,22.88,0,0,1-.28-4.28v-.81c0-3-.69-4.4-2.37-5.12,1.12-.42,2.66-1.7,2.66-4.67,0-3.52-2-5.45-5.59-5.45H155V52.83h3.15Zm0-8.84h2.32c2,0,2.86,1.14,2.86,3,0,2.16-.88,3.26-3.17,3.26h-2Z"/>
        <path d="M173,45.31c0-3.5-.09-7.84-.21-10.21h.1C173.53,39,175,46.89,176,52.83h2.89c1.43-6.53,2.81-13.94,3.52-17.68h.08c-.06,2.25-.12,6.16-.12,9.74v7.94h3V32.5h-4.62c-1.25,5.64-2.77,12.56-3.17,15.13h0c-.43-2.87-1.59-9.25-2.85-15.13h-4.72V52.83H173Z"/>
        <path d="M192,47.26h4.91l1.18,5.57h3.32L196.52,32.5h-4.1l-4.78,20.33h3.16Zm2.38-11.82h.08c.3,1.83,1,4.79,1.86,9.06h-3.74C193.38,40.54,194.09,37.28,194.35,35.44Z"/>
        <polygon points="213.8 50.12 206.74 50.12 206.74 32.5 203.58 32.5 203.58 52.83 213.46 52.83 213.8 50.12"/>
        <path d="M216.41,36.73h.3c.45,0,.57.18.57.7v.15a3.24,3.24,0,0,0,.07.84H218a5.05,5.05,0,0,1-.05-.83v-.16c0-.59-.15-.85-.45-1a.9.9,0,0,0,.51-.9,1,1,0,0,0-1.13-1.09H215.7v4h.71Zm0-1.7h.4a.47.47,0,0,1,.52.54c0,.4-.16.58-.59.58h-.33Z"/>
        <path d="M216.79,40.37a3.94,3.94,0,1,0-3.93-3.94A3.95,3.95,0,0,0,216.79,40.37Zm0-7.14a3.21,3.21,0,1,1-3.2,3.2A3.21,3.21,0,0,1,216.79,33.23Z"/>
        <path d="M294.37,0H46.67V23.67H63.25v23.5H51.5a28.29,28.29,0,1,0,0,32.26H63.25V192.14H172.61v-15.4H161.19v-8.21h16.43V192h3.6V168.53h56.67v23.61h37.72V23.67h18.76ZM63.25,50.77v4.1h-8a29.25,29.25,0,0,0-1.65-4.1Zm-7.1,7.7h7.1v9.66h-7.1a28,28,0,0,0,0-9.66ZM28.29,88A24.69,24.69,0,1,1,53,63.3,24.72,24.72,0,0,1,28.29,88ZM53.64,75.83a28.77,28.77,0,0,0,1.65-4.1h8v4.1ZM97.37,188.54H66.85V23.67h7.78V46.43h15V23.67h7.77V188.54ZM78.23,23.67H86V42.83H78.23Zm79.36,120.77-10.77-6.6h-5.7V65.28h16.47v79.16Zm-20.18-6.6h-4.1V69.38H105.07v68.46H101V65.28h36.44Zm-28.74,3.6h21v15.79h-21Zm0-3.6V73h21v64.86Zm-7.7,3.6h4.1v19.39h28.24V141.44h4.1v23.49H101Zm40.15,0h4.69l11.78,7.22v16.27H141.12Zm20.07-76.16h56.63v72.56H161.19Zm60.23,0h16.47v72.56H221.42Zm16.47-3.6H101v-38H237.89ZM169,180.34v8.2H101v-20h56.62v11.81Zm-7.82-15.41V150.87l16.43,10.06v4Zm20,0v-6l-20-12.26v-5.21h76.7v23.49ZM272,188.54H241.49V23.67h7.77V46.43h15V23.67H272ZM252.86,23.67h7.78V42.83h-7.78Zm37.91-3.6H50.27V3.6h240.5Z"/>
        <path d="M124.12,106.19a1.8,1.8,0,0,0-1.8,1.8v14.23a1.8,1.8,0,1,0,3.6,0V108A1.81,1.81,0,0,0,124.12,106.19Z"/>
    </g>
</symbol>
  
  

</svg>